<mxfile host="app.diagrams.net" agent="Mozilla/5.0 (Macintosh; Intel Mac OS X 10_15_7) AppleWebKit/537.36 (KHTML, like Gecko) Chrome/131.0.0.0 Safari/537.36" version="26.0.2">
  <diagram name="Page-1" id="VNptrxI4wNxgrtPxeA6J">
    <mxGraphModel dx="7621" dy="-3766" grid="1" gridSize="10" guides="1" tooltips="1" connect="1" arrows="1" fold="1" page="1" pageScale="1" pageWidth="1169" pageHeight="827" background="none" math="0" shadow="1">
      <root>
        <mxCell id="0" />
        <mxCell id="1" parent="0" />
        <mxCell id="S4O4gGOpB5IZ9sAPrB25-133" value="" style="whiteSpace=wrap;html=1;aspect=fixed;labelBackgroundColor=none;gradientDirection=west;movable=0;resizable=0;rotatable=0;deletable=0;editable=0;locked=1;connectable=0;gradientColor=none;fillStyle=auto;strokeColor=none;rounded=0;glass=0;shadow=0;" parent="1" vertex="1">
          <mxGeometry x="-5770" y="5550" width="1640" height="1640" as="geometry" />
        </mxCell>
        <mxCell id="S4O4gGOpB5IZ9sAPrB25-141" value="" style="group;fontFamily=Tahoma;fontStyle=1;textShadow=1;whiteSpace=wrap;html=1;shadow=0;" parent="1" vertex="1" connectable="0">
          <mxGeometry x="-5700" y="5632" width="1398" height="1328" as="geometry" />
        </mxCell>
        <mxCell id="S4O4gGOpB5IZ9sAPrB25-2" value="" style="edgeStyle=segmentEdgeStyle;endArrow=classic;curved=0;rounded=0;endSize=8;startSize=8;dashed=1;dashPattern=1 2;fillColor=#008a00;strokeColor=#005700;enumerate=0;comic=0;backgroundOutline=0;metaEdit=0;fixDash=0;snapToPoint=0;strokeWidth=3;fontFamily=Tahoma;labelBackgroundColor=none;labelBorderColor=none;textShadow=1;html=1;" parent="S4O4gGOpB5IZ9sAPrB25-141" edge="1">
          <mxGeometry width="50" height="50" relative="1" as="geometry">
            <mxPoint x="1096.9997560975607" y="255" as="sourcePoint" />
            <mxPoint x="789.3900000000003" y="110" as="targetPoint" />
            <Array as="points">
              <mxPoint x="776.3900000000003" y="255" />
              <mxPoint x="776.3900000000003" y="110" />
            </Array>
          </mxGeometry>
        </mxCell>
        <mxCell id="S4O4gGOpB5IZ9sAPrB25-3" value="4D" style="edgeLabel;align=center;verticalAlign=middle;resizable=0;points=[];fontSize=22;fontColor=#336600;enumerate=0;comic=0;backgroundOutline=0;metaEdit=0;fixDash=0;snapToPoint=0;fontFamily=Tahoma;labelBackgroundColor=none;labelBorderColor=none;textShadow=1;html=1;" parent="S4O4gGOpB5IZ9sAPrB25-2" vertex="1" connectable="0">
          <mxGeometry x="0.051" y="-2" relative="1" as="geometry">
            <mxPoint x="-48" y="-17" as="offset" />
          </mxGeometry>
        </mxCell>
        <mxCell id="S4O4gGOpB5IZ9sAPrB25-1" value="" style="edgeStyle=segmentEdgeStyle;endArrow=classic;curved=0;rounded=0;endSize=8;startSize=8;dashed=1;dashPattern=1 2;fillColor=#fa6800;strokeColor=#C73500;enumerate=0;comic=0;backgroundOutline=0;metaEdit=0;fixDash=0;snapToPoint=0;strokeWidth=3;fontFamily=Tahoma;labelBackgroundColor=none;labelBorderColor=none;textShadow=1;html=1;" parent="S4O4gGOpB5IZ9sAPrB25-141" edge="1">
          <mxGeometry width="50" height="50" relative="1" as="geometry">
            <mxPoint x="1092" y="269.6700000000001" as="sourcePoint" />
            <mxPoint x="136" y="279" as="targetPoint" />
          </mxGeometry>
        </mxCell>
        <mxCell id="S4O4gGOpB5IZ9sAPrB25-4" value="" style="endArrow=none;fontSize=18;enumerate=0;comic=0;backgroundOutline=0;metaEdit=0;fixDash=0;snapToPoint=0;strokeWidth=2;fontFamily=Tahoma;labelBackgroundColor=none;labelBorderColor=none;textShadow=1;html=1;exitX=0.899;exitY=0.627;exitDx=0;exitDy=0;exitPerimeter=0;" parent="S4O4gGOpB5IZ9sAPrB25-141" source="I7lcLRuuZxi_ZN2vdszQ-1" target="S4O4gGOpB5IZ9sAPrB25-18" edge="1">
          <mxGeometry width="50" height="50" relative="1" as="geometry">
            <mxPoint x="-73" y="389" as="sourcePoint" />
            <mxPoint x="1028" y="166" as="targetPoint" />
          </mxGeometry>
        </mxCell>
        <mxCell id="S4O4gGOpB5IZ9sAPrB25-5" value="HTTP Poort 80 en 443&amp;nbsp;&lt;br&gt;(zelf in te stellen)" style="edgeLabel;align=center;verticalAlign=middle;resizable=0;points=[];enumerate=0;comic=0;backgroundOutline=0;metaEdit=0;fixDash=0;snapToPoint=0;fontFamily=Tahoma;labelBackgroundColor=none;labelBorderColor=none;textShadow=1;html=1;fontSize=16;fontColor=default;" parent="S4O4gGOpB5IZ9sAPrB25-4" vertex="1" connectable="0">
          <mxGeometry x="-0.7497" y="-2" relative="1" as="geometry">
            <mxPoint x="-25" y="-92" as="offset" />
          </mxGeometry>
        </mxCell>
        <mxCell id="S4O4gGOpB5IZ9sAPrB25-6" value="" style="group;fontSize=18;enumerate=0;comic=0;backgroundOutline=0;metaEdit=0;fixDash=0;snapToPoint=0;strokeWidth=2;fontFamily=Tahoma;labelBackgroundColor=none;labelBorderColor=none;textShadow=1;html=1;fontColor=#7EA6E0;strokeColor=none;fillColor=none;fontStyle=1;whiteSpace=wrap;shadow=1;" parent="S4O4gGOpB5IZ9sAPrB25-141" vertex="1" connectable="0">
          <mxGeometry x="1097" y="99" width="301" height="532" as="geometry" />
        </mxCell>
        <UserObject label="" id="S4O4gGOpB5IZ9sAPrB25-7">
          <mxCell style="group;points=[[0,0,0,0,0],[0,0.25,0,0,0],[0,0.5,0,0,0],[0,0.75,0,0,0],[0,1,0,0,0],[0.25,0,0,0,0],[0.25,1,0,0,0],[0.5,0,0,0,0],[0.5,1,0,0,0],[0.75,0,0,0,0],[0.75,1,0,0,0],[1,0,0,0,0],[1,0.25,0,0,0],[1,0.5,0,0,0],[1,0.75,0,0,0],[1,1,0,0,0]];fontSize=18;enumerate=0;comic=0;backgroundOutline=0;metaEdit=0;fixDash=0;snapToPoint=0;fontFamily=Tahoma;labelBackgroundColor=none;labelBorderColor=none;textShadow=1;html=1;whiteSpace=wrap;shadow=1;" parent="S4O4gGOpB5IZ9sAPrB25-6" vertex="1" connectable="0">
            <mxGeometry width="301" height="532" as="geometry" />
          </mxCell>
        </UserObject>
        <mxCell id="S4O4gGOpB5IZ9sAPrB25-8" value="" style="group;fontSize=18;enumerate=0;comic=0;backgroundOutline=0;metaEdit=0;fixDash=0;snapToPoint=0;fontFamily=Tahoma;labelBackgroundColor=none;labelBorderColor=none;textShadow=1;html=1;whiteSpace=wrap;shadow=1;" parent="S4O4gGOpB5IZ9sAPrB25-7" vertex="1" connectable="0">
          <mxGeometry x="30.939024390243905" width="270.0609756097561" height="496.5" as="geometry" />
        </mxCell>
        <mxCell id="S4O4gGOpB5IZ9sAPrB25-9" value="" style="edgeStyle=orthogonalEdgeStyle;rounded=0;orthogonalLoop=1;jettySize=auto;endArrow=none;endFill=0;verticalAlign=middle;labelPosition=left;verticalLabelPosition=middle;align=right;spacingBottom=0;labelBorderColor=none;textShadow=1;fontSize=18;enumerate=0;comic=0;backgroundOutline=0;metaEdit=0;fixDash=0;snapToPoint=0;strokeWidth=2;fontFamily=Tahoma;labelBackgroundColor=none;html=1;fontStyle=0;shadow=1;" parent="S4O4gGOpB5IZ9sAPrB25-8" edge="1">
          <mxGeometry relative="1" as="geometry">
            <mxPoint x="262.7509756097556" y="48" as="sourcePoint" />
            <mxPoint x="236.0609756097565" y="475" as="targetPoint" />
            <Array as="points">
              <mxPoint x="263" y="24" />
              <mxPoint x="239" y="24" />
            </Array>
          </mxGeometry>
        </mxCell>
        <mxCell id="S4O4gGOpB5IZ9sAPrB25-10" value="Barcode" style="pointerEvents=1;shadow=1;dashed=0;strokeColor=none;labelPosition=right;verticalLabelPosition=middle;verticalAlign=middle;outlineConnect=0;align=left;shape=mxgraph.office.concepts.folder;fillColor=#DA4026;fontStyle=0;horizontal=1;fontSize=18;spacing=-2;spacingRight=0;spacingBottom=1;spacingLeft=15;enumerate=0;comic=0;backgroundOutline=0;metaEdit=0;fixDash=0;snapToPoint=0;fontFamily=Tahoma;labelBackgroundColor=none;labelBorderColor=none;textShadow=1;html=1;fontColor=#FF2B2B;whiteSpace=wrap;" parent="S4O4gGOpB5IZ9sAPrB25-8" vertex="1">
          <mxGeometry x="207.13414634146343" width="62.926829268292686" height="45" as="geometry" />
        </mxCell>
        <mxCell id="S4O4gGOpB5IZ9sAPrB25-11" value="" style="edgeStyle=orthogonalEdgeStyle;rounded=0;orthogonalLoop=1;jettySize=auto;endArrow=none;endFill=0;fontSize=18;enumerate=0;comic=0;backgroundOutline=0;metaEdit=0;fixDash=0;snapToPoint=0;strokeWidth=2;fontFamily=Tahoma;labelBackgroundColor=none;labelBorderColor=none;textShadow=1;html=1;fontColor=#FF2B2B;fontStyle=0;shadow=1;" parent="S4O4gGOpB5IZ9sAPrB25-8" source="S4O4gGOpB5IZ9sAPrB25-12" target="S4O4gGOpB5IZ9sAPrB25-10" edge="1">
          <mxGeometry relative="1" as="geometry" />
        </mxCell>
        <mxCell id="S4O4gGOpB5IZ9sAPrB25-12" value="&lt;span&gt;Webfolder&lt;/span&gt;" style="pointerEvents=1;shadow=1;dashed=0;strokeColor=none;labelPosition=center;verticalLabelPosition=top;verticalAlign=bottom;outlineConnect=0;align=center;shape=mxgraph.office.concepts.folder;fillColor=#DA4026;fontStyle=0;horizontal=1;fontSize=18;enumerate=0;comic=0;backgroundOutline=0;metaEdit=0;fixDash=0;snapToPoint=0;fontFamily=Tahoma;labelBackgroundColor=none;labelBorderColor=none;textShadow=1;html=1;fontColor=#FF2B2B;whiteSpace=wrap;" parent="S4O4gGOpB5IZ9sAPrB25-8" vertex="1">
          <mxGeometry x="95.96341463414635" width="62.926829268292686" height="45" as="geometry" />
        </mxCell>
        <mxCell id="S4O4gGOpB5IZ9sAPrB25-13" value="Module" style="pointerEvents=1;shadow=1;dashed=0;strokeColor=none;labelPosition=right;verticalLabelPosition=middle;verticalAlign=middle;outlineConnect=0;align=left;shape=mxgraph.office.concepts.folder;fillColor=#DA4026;fontStyle=0;horizontal=1;fontSize=18;enumerate=0;comic=0;backgroundOutline=0;metaEdit=0;fixDash=0;snapToPoint=0;spacingLeft=16;fontFamily=Tahoma;labelBackgroundColor=none;labelBorderColor=none;textShadow=1;html=1;fontColor=#FF2B2B;whiteSpace=wrap;" parent="S4O4gGOpB5IZ9sAPrB25-8" vertex="1">
          <mxGeometry x="207.13414634146343" y="339.5" width="62.926829268292686" height="45" as="geometry" />
        </mxCell>
        <mxCell id="S4O4gGOpB5IZ9sAPrB25-14" value="Dashboard" style="pointerEvents=1;shadow=1;dashed=0;strokeColor=none;labelPosition=right;verticalLabelPosition=middle;verticalAlign=middle;outlineConnect=0;align=left;shape=mxgraph.office.concepts.folder;fillColor=#DA4026;fontStyle=0;horizontal=1;fontSize=18;enumerate=0;comic=0;backgroundOutline=0;metaEdit=0;fixDash=0;snapToPoint=0;spacingLeft=16;fontFamily=Tahoma;labelBackgroundColor=none;labelBorderColor=none;textShadow=1;html=1;fontColor=#FF2B2B;whiteSpace=wrap;" parent="S4O4gGOpB5IZ9sAPrB25-8" vertex="1">
          <mxGeometry x="207.13414634146343" y="227.5" width="62.926829268292686" height="45" as="geometry" />
        </mxCell>
        <mxCell id="S4O4gGOpB5IZ9sAPrB25-15" value="Cloud" style="pointerEvents=1;shadow=1;dashed=0;strokeColor=none;labelPosition=right;verticalLabelPosition=middle;verticalAlign=middle;outlineConnect=0;align=left;shape=mxgraph.office.concepts.folder;fillColor=#DA4026;gradientColor=none;fillStyle=auto;fontStyle=0;horizontal=1;fontSize=18;spacing=-2;spacingRight=0;spacingBottom=1;spacingLeft=16;enumerate=0;comic=0;backgroundOutline=0;metaEdit=0;fixDash=0;snapToPoint=0;fontFamily=Tahoma;labelBackgroundColor=none;labelBorderColor=none;textShadow=1;html=1;fontColor=#FF2B2B;whiteSpace=wrap;" parent="S4O4gGOpB5IZ9sAPrB25-8" vertex="1">
          <mxGeometry x="207.13414634146343" y="115" width="62.926829268292686" height="44.5" as="geometry" />
        </mxCell>
        <mxCell id="S4O4gGOpB5IZ9sAPrB25-16" value="Registration" style="pointerEvents=1;shadow=1;dashed=0;strokeColor=none;labelPosition=right;verticalLabelPosition=middle;verticalAlign=middle;outlineConnect=0;align=left;shape=mxgraph.office.concepts.folder;fillColor=#DA4026;fontStyle=0;horizontal=1;fontSize=18;enumerate=0;comic=0;backgroundOutline=0;metaEdit=0;fixDash=0;snapToPoint=0;spacingLeft=16;fontFamily=Tahoma;labelBackgroundColor=none;labelBorderColor=none;textShadow=1;html=1;fontColor=#FF2B2B;whiteSpace=wrap;" parent="S4O4gGOpB5IZ9sAPrB25-8" vertex="1">
          <mxGeometry x="207.13414634146343" y="451.5" width="62.926829268292686" height="45" as="geometry" />
        </mxCell>
        <mxCell id="S4O4gGOpB5IZ9sAPrB25-17" value="" style="rounded=0;orthogonalLoop=1;jettySize=auto;endArrow=none;endFill=0;strokeColor=default;align=center;verticalAlign=middle;fontFamily=Tahoma;fontSize=18;fontColor=default;labelBackgroundColor=none;enumerate=0;comic=0;backgroundOutline=0;metaEdit=0;fixDash=0;snapToPoint=0;strokeWidth=2;labelBorderColor=none;textShadow=1;html=1;" parent="S4O4gGOpB5IZ9sAPrB25-8" edge="1">
          <mxGeometry relative="1" as="geometry">
            <mxPoint y="108" as="sourcePoint" />
            <mxPoint x="1.048780487804878" y="45" as="targetPoint" />
          </mxGeometry>
        </mxCell>
        <mxCell id="S4O4gGOpB5IZ9sAPrB25-18" value="&lt;font style=&quot;color: rgb(255, 0, 0);&quot;&gt;&lt;b style=&quot;&quot;&gt;&lt;font style=&quot;&quot;&gt;MultiPress Server&lt;br&gt;&lt;/font&gt;&lt;/b&gt;&lt;br&gt;&lt;/font&gt;&lt;div&gt;&lt;br&gt;&lt;/div&gt;" style="pointerEvents=1;shadow=1;dashed=0;strokeColor=none;fillColor=#DA4026;labelPosition=center;verticalLabelPosition=bottom;verticalAlign=top;outlineConnect=0;align=center;shape=mxgraph.office.servers.application_server_blue;fontSize=18;enumerate=0;comic=0;backgroundOutline=0;metaEdit=0;fixDash=0;snapToPoint=0;fontFamily=Tahoma;labelBackgroundColor=none;labelBorderColor=none;textShadow=1;html=1;fontColor=#000000;whiteSpace=wrap;" parent="S4O4gGOpB5IZ9sAPrB25-8" vertex="1">
          <mxGeometry x="-39.329268292682926" y="104" width="130.79341463414633" height="164" as="geometry" />
        </mxCell>
        <mxCell id="S4O4gGOpB5IZ9sAPrB25-19" value="&lt;font style=&quot;color: rgb(255, 0, 0);&quot;&gt;&amp;nbsp;&lt;/font&gt;&lt;div&gt;&lt;font&gt;ports&amp;nbsp;&lt;/font&gt;&lt;/div&gt;&lt;div&gt;&lt;font&gt;19812 - 19814&lt;/font&gt;&lt;/div&gt;" style="text;fontSize=14;enumerate=0;comic=0;backgroundOutline=0;metaEdit=0;fixDash=0;snapToPoint=0;fontFamily=Tahoma;labelBackgroundColor=none;labelBorderColor=none;textShadow=1;html=1;align=center;verticalAlign=middle;horizontal=1;fontStyle=1;whiteSpace=wrap;shadow=1;" parent="S4O4gGOpB5IZ9sAPrB25-8" vertex="1">
          <mxGeometry x="5.96" y="159.5" width="90" height="140" as="geometry" />
        </mxCell>
        <mxCell id="S4O4gGOpB5IZ9sAPrB25-20" value="&lt;span style=&quot;font-weight: normal;&quot;&gt;MultiPress Server&amp;nbsp;&lt;/span&gt;" style="pointerEvents=1;shadow=1;dashed=0;strokeColor=none;labelPosition=left;verticalLabelPosition=middle;verticalAlign=middle;outlineConnect=0;align=right;shape=mxgraph.office.concepts.folder;fillColor=#DA4026;fontStyle=1;horizontal=1;spacingRight=5;spacingBottom=0;spacingTop=7;fontSize=18;enumerate=0;comic=0;backgroundOutline=0;metaEdit=0;fixDash=0;snapToPoint=0;fontFamily=Tahoma;labelBackgroundColor=none;labelBorderColor=none;textShadow=1;html=1;fontColor=#FF2B2B;whiteSpace=wrap;" parent="S4O4gGOpB5IZ9sAPrB25-6" vertex="1">
          <mxGeometry width="62.926829268292686" height="45" as="geometry" />
        </mxCell>
        <mxCell id="S4O4gGOpB5IZ9sAPrB25-21" value="" style="edgeStyle=orthogonalEdgeStyle;rounded=0;orthogonalLoop=1;jettySize=auto;endArrow=none;endFill=0;fontSize=18;enumerate=0;comic=0;backgroundOutline=0;metaEdit=0;fixDash=0;snapToPoint=0;strokeWidth=2;fontFamily=Tahoma;labelBackgroundColor=none;labelBorderColor=none;textShadow=1;html=1;fontColor=#FF2B2B;shadow=1;" parent="S4O4gGOpB5IZ9sAPrB25-6" source="S4O4gGOpB5IZ9sAPrB25-20" target="S4O4gGOpB5IZ9sAPrB25-12" edge="1">
          <mxGeometry relative="1" as="geometry" />
        </mxCell>
        <mxCell id="S4O4gGOpB5IZ9sAPrB25-22" value="" style="group;fontSize=18;spacingLeft=3;enumerate=0;comic=0;backgroundOutline=0;metaEdit=0;fixDash=0;snapToPoint=0;fontFamily=Tahoma;labelBackgroundColor=none;labelBorderColor=none;textShadow=1;html=1;whiteSpace=wrap;" parent="S4O4gGOpB5IZ9sAPrB25-141" vertex="1" connectable="0">
          <mxGeometry x="670" width="281" height="424.61" as="geometry" />
        </mxCell>
        <mxCell id="S4O4gGOpB5IZ9sAPrB25-23" value="" style="group;fontSize=18;enumerate=0;comic=0;backgroundOutline=0;metaEdit=0;fixDash=0;snapToPoint=0;fontFamily=Tahoma;labelBackgroundColor=none;labelBorderColor=none;textShadow=1;html=1;whiteSpace=wrap;" parent="S4O4gGOpB5IZ9sAPrB25-22" vertex="1" connectable="0">
          <mxGeometry width="281" height="424.61" as="geometry" />
        </mxCell>
        <mxCell id="S4O4gGOpB5IZ9sAPrB25-24" value="" style="endArrow=none;fontSize=18;enumerate=0;comic=0;backgroundOutline=0;metaEdit=0;fixDash=0;snapToPoint=0;fontFamily=Tahoma;labelBackgroundColor=none;labelBorderColor=none;textShadow=1;html=1;" parent="S4O4gGOpB5IZ9sAPrB25-23" edge="1">
          <mxGeometry width="50" height="50" relative="1" as="geometry">
            <mxPoint x="90" y="283" as="sourcePoint" />
            <mxPoint x="90" y="102" as="targetPoint" />
          </mxGeometry>
        </mxCell>
        <mxCell id="S4O4gGOpB5IZ9sAPrB25-25" value="&lt;font&gt;Multipress Clients&lt;/font&gt;" style="edgeLabel;align=center;verticalAlign=middle;resizable=0;points=[];enumerate=0;comic=0;backgroundOutline=0;metaEdit=0;fixDash=0;snapToPoint=0;fontFamily=Tahoma;labelBackgroundColor=none;labelBorderColor=none;textShadow=1;html=1;fontSize=17;fontStyle=1;fontColor=default;" parent="S4O4gGOpB5IZ9sAPrB25-24" vertex="1" connectable="0">
          <mxGeometry x="-0.1784" y="-2" relative="1" as="geometry">
            <mxPoint x="-87" y="-48" as="offset" />
          </mxGeometry>
        </mxCell>
        <mxCell id="S4O4gGOpB5IZ9sAPrB25-26" value="" style="verticalLabelPosition=bottom;aspect=fixed;shape=mxgraph.salesforce.web;fontSize=18;enumerate=0;comic=0;backgroundOutline=0;metaEdit=0;fixDash=0;snapToPoint=0;fontFamily=Tahoma;labelBackgroundColor=none;labelBorderColor=none;textShadow=1;html=1;whiteSpace=wrap;shadow=1;" parent="S4O4gGOpB5IZ9sAPrB25-23" vertex="1">
          <mxGeometry x="34" width="118.85" height="93.89" as="geometry" />
        </mxCell>
        <mxCell id="S4O4gGOpB5IZ9sAPrB25-27" value="" style="verticalLabelPosition=bottom;aspect=fixed;shape=mxgraph.salesforce.web;fontSize=18;enumerate=0;comic=0;backgroundOutline=0;metaEdit=0;fixDash=0;snapToPoint=0;fontFamily=Tahoma;labelBackgroundColor=none;labelBorderColor=none;textShadow=1;html=1;fillColor=default;gradientColor=none;strokeColor=none;shadow=1;whiteSpace=wrap;" parent="S4O4gGOpB5IZ9sAPrB25-23" vertex="1">
          <mxGeometry x="101" y="21" width="118.85" height="93.89" as="geometry" />
        </mxCell>
        <mxCell id="S4O4gGOpB5IZ9sAPrB25-28" value="" style="verticalLabelPosition=bottom;aspect=fixed;shape=mxgraph.salesforce.web;labelBorderColor=none;spacing=0;spacingBottom=50;fontSize=18;enumerate=0;comic=0;backgroundOutline=0;metaEdit=0;fixDash=0;snapToPoint=0;fontFamily=Tahoma;labelBackgroundColor=none;textShadow=1;html=1;whiteSpace=wrap;shadow=1;" parent="S4O4gGOpB5IZ9sAPrB25-23" vertex="1">
          <mxGeometry x="-2" y="43" width="130.38" height="103" as="geometry" />
        </mxCell>
        <mxCell id="S4O4gGOpB5IZ9sAPrB25-29" value="" style="edgeStyle=orthogonalEdgeStyle;orthogonalLoop=1;jettySize=auto;entryX=0.349;entryY=0.018;entryDx=0;entryDy=0;entryPerimeter=0;fontSize=18;enumerate=0;comic=0;backgroundOutline=0;metaEdit=0;fixDash=0;snapToPoint=0;strokeWidth=2;endArrow=none;endFill=0;fontFamily=Tahoma;labelBackgroundColor=none;labelBorderColor=none;textShadow=1;html=1;" parent="S4O4gGOpB5IZ9sAPrB25-23" target="S4O4gGOpB5IZ9sAPrB25-60" edge="1">
          <mxGeometry relative="1" as="geometry">
            <Array as="points">
              <mxPoint x="301" y="441" />
            </Array>
            <mxPoint x="301" y="283" as="sourcePoint" />
            <mxPoint x="152.85000000000036" y="373" as="targetPoint" />
          </mxGeometry>
        </mxCell>
        <mxCell id="S4O4gGOpB5IZ9sAPrB25-30" value="" style="edgeStyle=orthogonalEdgeStyle;orthogonalLoop=1;jettySize=auto;entryX=0.314;entryY=0.131;entryDx=0;entryDy=0;entryPerimeter=0;fontSize=18;enumerate=0;comic=0;backgroundOutline=0;metaEdit=0;fixDash=0;snapToPoint=0;strokeWidth=2;endArrow=none;endFill=0;fontFamily=Tahoma;labelBackgroundColor=none;labelBorderColor=none;textShadow=1;html=1;" parent="S4O4gGOpB5IZ9sAPrB25-23" target="S4O4gGOpB5IZ9sAPrB25-60" edge="1">
          <mxGeometry relative="1" as="geometry">
            <Array as="points">
              <mxPoint x="301" y="441" />
              <mxPoint x="302" y="441" />
            </Array>
            <mxPoint x="301" y="283" as="sourcePoint" />
            <mxPoint x="152.85000000000036" y="373" as="targetPoint" />
          </mxGeometry>
        </mxCell>
        <mxCell id="S4O4gGOpB5IZ9sAPrB25-31" value="" style="group;fontSize=18;enumerate=0;comic=0;backgroundOutline=0;metaEdit=0;fixDash=0;snapToPoint=0;strokeWidth=2;fontFamily=Tahoma;labelBackgroundColor=none;labelBorderColor=none;textShadow=1;html=1;whiteSpace=wrap;" parent="S4O4gGOpB5IZ9sAPrB25-141" vertex="1" connectable="0">
          <mxGeometry x="260" y="438" width="825" height="890" as="geometry" />
        </mxCell>
        <mxCell id="S4O4gGOpB5IZ9sAPrB25-32" value="" style="endArrow=none;rounded=0;fontSize=18;enumerate=0;comic=0;backgroundOutline=0;metaEdit=0;fixDash=0;snapToPoint=0;strokeWidth=2;fontFamily=Tahoma;labelBackgroundColor=none;labelBorderColor=none;textShadow=0;html=1;fontColor=#1940FF;fontStyle=0;curved=0;" parent="S4O4gGOpB5IZ9sAPrB25-31" source="S4O4gGOpB5IZ9sAPrB25-53" target="S4O4gGOpB5IZ9sAPrB25-59" edge="1">
          <mxGeometry width="50" height="50" relative="1" as="geometry">
            <mxPoint x="331" y="488" as="sourcePoint" />
            <mxPoint x="446" y="742.9523809523807" as="targetPoint" />
            <Array as="points" />
          </mxGeometry>
        </mxCell>
        <mxCell id="S4O4gGOpB5IZ9sAPrB25-122" value="&lt;span style=&quot;color: rgb(25, 64, 255); font-size: 18px; text-wrap-mode: wrap;&quot;&gt;Bestanden&lt;/span&gt;" style="edgeLabel;html=1;align=center;verticalAlign=middle;resizable=0;points=[];labelBackgroundColor=none;fontFamily=Tahoma;fontStyle=0;textShadow=0;" parent="S4O4gGOpB5IZ9sAPrB25-32" vertex="1" connectable="0">
          <mxGeometry x="-0.7674" y="1" relative="1" as="geometry">
            <mxPoint x="83" y="-59" as="offset" />
          </mxGeometry>
        </mxCell>
        <mxCell id="S4O4gGOpB5IZ9sAPrB25-124" value="&lt;span style=&quot;color: rgb(25, 64, 255); font-size: 18px; text-wrap-mode: wrap;&quot;&gt;Converter&lt;/span&gt;" style="edgeLabel;html=1;align=center;verticalAlign=middle;resizable=0;points=[];labelBackgroundColor=none;fontFamily=Tahoma;fontStyle=0;textShadow=0;" parent="S4O4gGOpB5IZ9sAPrB25-32" vertex="1" connectable="0">
          <mxGeometry x="-0.019" relative="1" as="geometry">
            <mxPoint x="85" y="-63" as="offset" />
          </mxGeometry>
        </mxCell>
        <mxCell id="S4O4gGOpB5IZ9sAPrB25-125" value="&lt;span style=&quot;color: rgb(25, 64, 255); font-size: 18px; text-wrap-mode: wrap;&quot;&gt;Datafile&lt;/span&gt;" style="edgeLabel;html=1;align=center;verticalAlign=middle;resizable=0;points=[];labelBackgroundColor=none;fontFamily=Tahoma;fontStyle=0;textShadow=0;" parent="S4O4gGOpB5IZ9sAPrB25-32" vertex="1" connectable="0">
          <mxGeometry x="0.8084" relative="1" as="geometry">
            <mxPoint x="75" y="-59" as="offset" />
          </mxGeometry>
        </mxCell>
        <mxCell id="S4O4gGOpB5IZ9sAPrB25-33" value="" style="endArrow=none;rounded=0;fontSize=18;enumerate=0;comic=0;backgroundOutline=0;metaEdit=0;fixDash=0;snapToPoint=0;strokeWidth=2;fontFamily=Tahoma;labelBackgroundColor=none;labelBorderColor=none;textShadow=0;html=1;fontColor=#1940FF;fontStyle=0;curved=0;" parent="S4O4gGOpB5IZ9sAPrB25-31" source="S4O4gGOpB5IZ9sAPrB25-47" edge="1">
          <mxGeometry width="50" height="50" relative="1" as="geometry">
            <mxPoint x="64" y="139" as="sourcePoint" />
            <mxPoint x="305" y="874" as="targetPoint" />
          </mxGeometry>
        </mxCell>
        <mxCell id="S4O4gGOpB5IZ9sAPrB25-116" value="&lt;font color=&quot;#1940ff&quot;&gt;&lt;span style=&quot;font-size: 18px; text-wrap-mode: wrap;&quot;&gt;&lt;span&gt;Internet&lt;/span&gt;&lt;/span&gt;&lt;/font&gt;" style="edgeLabel;html=1;align=center;verticalAlign=middle;resizable=0;points=[];labelBackgroundColor=none;fontFamily=Tahoma;fontStyle=0;textShadow=0;" parent="S4O4gGOpB5IZ9sAPrB25-33" vertex="1" connectable="0">
          <mxGeometry x="-0.251" y="1" relative="1" as="geometry">
            <mxPoint x="76" y="-46" as="offset" />
          </mxGeometry>
        </mxCell>
        <mxCell id="S4O4gGOpB5IZ9sAPrB25-117" value="&lt;span style=&quot;color: rgb(25, 64, 255); font-size: 18px; text-wrap-mode: wrap;&quot;&gt;Back-up_brieven&lt;/span&gt;" style="edgeLabel;html=1;align=center;verticalAlign=middle;resizable=0;points=[];labelBackgroundColor=none;fontFamily=Tahoma;fontStyle=0;textShadow=0;" parent="S4O4gGOpB5IZ9sAPrB25-33" vertex="1" connectable="0">
          <mxGeometry x="-0.5151" relative="1" as="geometry">
            <mxPoint x="87" y="-76" as="offset" />
          </mxGeometry>
        </mxCell>
        <mxCell id="S4O4gGOpB5IZ9sAPrB25-119" value="&lt;span style=&quot;color: rgb(25, 64, 255); font-size: 18px; text-wrap-mode: wrap;&quot;&gt;Data&lt;/span&gt;" style="edgeLabel;html=1;align=center;verticalAlign=middle;resizable=0;points=[];labelBackgroundColor=none;fontFamily=Tahoma;fontStyle=0;textShadow=0;" parent="S4O4gGOpB5IZ9sAPrB25-33" vertex="1" connectable="0">
          <mxGeometry x="-0.8866" relative="1" as="geometry">
            <mxPoint x="57" y="-54" as="offset" />
          </mxGeometry>
        </mxCell>
        <mxCell id="S4O4gGOpB5IZ9sAPrB25-123" value="&lt;span style=&quot;color: rgb(25, 64, 255); font-size: 18px; text-wrap-mode: wrap;&quot;&gt;Web2Print&lt;/span&gt;" style="edgeLabel;html=1;align=center;verticalAlign=middle;resizable=0;points=[];labelBackgroundColor=none;fontFamily=Tahoma;fontStyle=0;textShadow=0;" parent="S4O4gGOpB5IZ9sAPrB25-33" vertex="1" connectable="0">
          <mxGeometry x="0.4138" relative="1" as="geometry">
            <mxPoint x="-84" y="-49" as="offset" />
          </mxGeometry>
        </mxCell>
        <mxCell id="S4O4gGOpB5IZ9sAPrB25-126" value="&lt;span style=&quot;color: rgb(25, 64, 255); font-size: 18px; text-wrap-mode: wrap;&quot;&gt;Standaard_&lt;br&gt;Documenten&lt;/span&gt;" style="edgeLabel;html=1;align=center;verticalAlign=middle;resizable=0;points=[];labelBackgroundColor=none;fontFamily=Tahoma;fontStyle=0;textShadow=0;" parent="S4O4gGOpB5IZ9sAPrB25-33" vertex="1" connectable="0">
          <mxGeometry x="0.7876" relative="1" as="geometry">
            <mxPoint x="-95" y="-51" as="offset" />
          </mxGeometry>
        </mxCell>
        <mxCell id="S4O4gGOpB5IZ9sAPrB25-127" value="&lt;span style=&quot;color: rgb(25, 64, 255); font-size: 18px; text-wrap-mode: wrap;&quot;&gt;Converter&lt;/span&gt;" style="edgeLabel;html=1;align=center;verticalAlign=middle;resizable=0;points=[];labelBackgroundColor=none;fontFamily=Tahoma;fontStyle=0;textShadow=0;" parent="S4O4gGOpB5IZ9sAPrB25-33" vertex="1" connectable="0">
          <mxGeometry x="0.096" relative="1" as="geometry">
            <mxPoint x="-84" y="-48" as="offset" />
          </mxGeometry>
        </mxCell>
        <mxCell id="S4O4gGOpB5IZ9sAPrB25-35" value="" style="edgeStyle=orthogonalEdgeStyle;orthogonalLoop=1;jettySize=auto;entryX=0.413;entryY=0.444;entryDx=0;entryDy=0;entryPerimeter=0;fontSize=18;enumerate=0;comic=0;backgroundOutline=0;metaEdit=0;fixDash=0;snapToPoint=0;strokeWidth=2;fontFamily=Tahoma;labelBackgroundColor=none;labelBorderColor=none;textShadow=1;html=1;rounded=0;curved=0;" parent="S4O4gGOpB5IZ9sAPrB25-31" source="S4O4gGOpB5IZ9sAPrB25-60" target="S4O4gGOpB5IZ9sAPrB25-55" edge="1">
          <mxGeometry relative="1" as="geometry">
            <Array as="points">
              <mxPoint x="690" y="87" />
              <mxPoint x="690" y="87" />
            </Array>
          </mxGeometry>
        </mxCell>
        <mxCell id="S4O4gGOpB5IZ9sAPrB25-36" value="" style="endArrow=none;rounded=0;fontSize=18;enumerate=0;comic=0;backgroundOutline=0;metaEdit=0;fixDash=0;snapToPoint=0;fontFamily=Tahoma;labelBackgroundColor=none;labelBorderColor=none;textShadow=0;html=1;strokeWidth=2;fontColor=#1940FF;fontStyle=0;curved=0;" parent="S4O4gGOpB5IZ9sAPrB25-31" source="S4O4gGOpB5IZ9sAPrB25-49" edge="1">
          <mxGeometry width="50" height="50" relative="1" as="geometry">
            <mxPoint x="74" y="149" as="sourcePoint" />
            <mxPoint x="422" y="478" as="targetPoint" />
            <Array as="points" />
          </mxGeometry>
        </mxCell>
        <mxCell id="S4O4gGOpB5IZ9sAPrB25-37" value="" style="endArrow=none;rounded=0;fontSize=18;enumerate=0;comic=0;backgroundOutline=0;metaEdit=0;fixDash=0;snapToPoint=0;strokeWidth=2;fontFamily=Tahoma;labelBackgroundColor=none;labelBorderColor=none;textShadow=0;html=1;endSize=0;startSize=0;jumpSize=0;jumpStyle=arc;fontColor=#1940FF;fontStyle=0;curved=0;" parent="S4O4gGOpB5IZ9sAPrB25-31" source="S4O4gGOpB5IZ9sAPrB25-39" edge="1">
          <mxGeometry width="50" height="50" relative="1" as="geometry">
            <mxPoint x="60" y="98" as="sourcePoint" />
            <mxPoint x="25" y="760" as="targetPoint" />
          </mxGeometry>
        </mxCell>
        <mxCell id="S4O4gGOpB5IZ9sAPrB25-38" value="" style="endArrow=none;rounded=0;fontSize=18;enumerate=0;comic=0;backgroundOutline=0;metaEdit=0;fixDash=0;snapToPoint=0;strokeWidth=2;fontFamily=Tahoma;labelBackgroundColor=none;labelBorderColor=none;textShadow=0;html=1;fontColor=#1940FF;fontStyle=0;curved=0;" parent="S4O4gGOpB5IZ9sAPrB25-31" source="S4O4gGOpB5IZ9sAPrB25-39" target="S4O4gGOpB5IZ9sAPrB25-55" edge="1">
          <mxGeometry width="50" height="50" relative="1" as="geometry">
            <mxPoint x="236" y="275" as="sourcePoint" />
            <mxPoint x="286" y="225" as="targetPoint" />
          </mxGeometry>
        </mxCell>
        <mxCell id="S4O4gGOpB5IZ9sAPrB25-39" value="1_correspondentie_klant" style="pointerEvents=1;shadow=0;dashed=0;strokeColor=none;labelPosition=left;verticalLabelPosition=middle;verticalAlign=middle;outlineConnect=0;align=right;shape=mxgraph.office.concepts.folder;fillColor=#2072B8;fontStyle=0;horizontal=1;spacingLeft=10;spacingRight=11;rounded=0;fontSize=18;enumerate=0;comic=0;backgroundOutline=0;metaEdit=0;fixDash=0;snapToPoint=0;fontFamily=Tahoma;labelBackgroundColor=none;labelBorderColor=none;textShadow=0;html=1;fontColor=#1940FF;whiteSpace=wrap;" parent="S4O4gGOpB5IZ9sAPrB25-31" vertex="1">
          <mxGeometry y="63" width="63" height="50" as="geometry" />
        </mxCell>
        <mxCell id="S4O4gGOpB5IZ9sAPrB25-40" value="2_correspondentie&lt;br&gt;_leverancier" style="pointerEvents=1;shadow=0;dashed=0;strokeColor=none;labelPosition=left;verticalLabelPosition=middle;verticalAlign=middle;outlineConnect=0;align=right;shape=mxgraph.office.concepts.folder;fillColor=#2072B8;fontStyle=0;horizontal=1;spacingLeft=10;spacingRight=11;rounded=0;fontSize=18;enumerate=0;comic=0;backgroundOutline=0;metaEdit=0;fixDash=0;snapToPoint=0;fontFamily=Tahoma;labelBackgroundColor=none;labelBorderColor=none;textShadow=0;html=1;fontColor=#1940FF;whiteSpace=wrap;" parent="S4O4gGOpB5IZ9sAPrB25-31" vertex="1">
          <mxGeometry y="193" width="63" height="50" as="geometry" />
        </mxCell>
        <mxCell id="S4O4gGOpB5IZ9sAPrB25-41" value="4_aangeleverde_pdf" style="pointerEvents=1;shadow=0;dashed=0;strokeColor=none;labelPosition=left;verticalLabelPosition=middle;verticalAlign=middle;outlineConnect=0;align=right;shape=mxgraph.office.concepts.folder;fillColor=#2072B8;fontStyle=0;horizontal=1;spacingLeft=10;spacingRight=11;rounded=0;fontSize=18;enumerate=0;comic=0;backgroundOutline=0;metaEdit=0;fixDash=0;snapToPoint=0;fontFamily=Tahoma;labelBackgroundColor=none;labelBorderColor=none;textShadow=0;html=1;fontColor=#1940FF;whiteSpace=wrap;" parent="S4O4gGOpB5IZ9sAPrB25-31" vertex="1">
          <mxGeometry y="453" width="63" height="50" as="geometry" />
        </mxCell>
        <mxCell id="S4O4gGOpB5IZ9sAPrB25-42" value="3_backup_brieven" style="pointerEvents=1;shadow=0;dashed=0;strokeColor=none;labelPosition=left;verticalLabelPosition=middle;verticalAlign=middle;outlineConnect=0;align=right;shape=mxgraph.office.concepts.folder;fillColor=#2072B8;fontStyle=0;horizontal=1;spacingLeft=10;spacingRight=11;rounded=0;fontSize=18;enumerate=0;comic=0;backgroundOutline=0;metaEdit=0;fixDash=0;snapToPoint=0;fontFamily=Tahoma;labelBackgroundColor=none;labelBorderColor=none;textShadow=0;html=1;fontColor=#1940FF;whiteSpace=wrap;" parent="S4O4gGOpB5IZ9sAPrB25-31" vertex="1">
          <mxGeometry y="323" width="63" height="50" as="geometry" />
        </mxCell>
        <mxCell id="S4O4gGOpB5IZ9sAPrB25-43" value="5_opmaak" style="pointerEvents=1;shadow=0;dashed=0;strokeColor=none;labelPosition=left;verticalLabelPosition=middle;verticalAlign=middle;outlineConnect=0;align=right;shape=mxgraph.office.concepts.folder;fillColor=#2072B8;fontStyle=0;horizontal=1;spacingLeft=10;spacingRight=11;rounded=0;fontSize=18;enumerate=0;comic=0;backgroundOutline=0;metaEdit=0;fixDash=0;snapToPoint=0;fontFamily=Tahoma;labelBackgroundColor=none;labelBorderColor=none;textShadow=0;html=1;fontColor=#1940FF;whiteSpace=wrap;" parent="S4O4gGOpB5IZ9sAPrB25-31" vertex="1">
          <mxGeometry y="573" width="63" height="50" as="geometry" />
        </mxCell>
        <mxCell id="S4O4gGOpB5IZ9sAPrB25-44" value="6_prepress_workflow" style="pointerEvents=1;shadow=0;dashed=0;strokeColor=none;labelPosition=left;verticalLabelPosition=middle;verticalAlign=middle;outlineConnect=0;align=right;shape=mxgraph.office.concepts.folder;fillColor=#2072B8;fontStyle=0;horizontal=1;spacingLeft=10;spacingRight=11;rounded=0;fontSize=18;enumerate=0;comic=0;backgroundOutline=0;metaEdit=0;fixDash=0;snapToPoint=0;fontFamily=Tahoma;labelBackgroundColor=none;labelBorderColor=none;textShadow=0;html=1;fontColor=#1940FF;whiteSpace=wrap;" parent="S4O4gGOpB5IZ9sAPrB25-31" vertex="1">
          <mxGeometry y="713" width="63" height="47" as="geometry" />
        </mxCell>
        <mxCell id="S4O4gGOpB5IZ9sAPrB25-50" value="" style="pointerEvents=1;shadow=0;dashed=0;strokeColor=none;labelPosition=center;verticalLabelPosition=bottom;verticalAlign=top;outlineConnect=0;align=center;shape=mxgraph.office.concepts.folder;fillColor=#2072B8;fontStyle=0;rounded=0;fontSize=18;enumerate=0;comic=0;backgroundOutline=0;metaEdit=0;fixDash=0;snapToPoint=0;fontFamily=Tahoma;labelBackgroundColor=none;labelBorderColor=none;textShadow=0;html=1;fontColor=#1940FF;whiteSpace=wrap;" parent="S4O4gGOpB5IZ9sAPrB25-31" vertex="1">
          <mxGeometry x="271" y="573" width="63" height="50" as="geometry" />
        </mxCell>
        <mxCell id="S4O4gGOpB5IZ9sAPrB25-51" value="Tijdelijk" style="pointerEvents=1;shadow=0;dashed=0;strokeColor=none;labelPosition=center;verticalLabelPosition=bottom;verticalAlign=top;outlineConnect=0;align=center;shape=mxgraph.office.concepts.folder;fillColor=#2072B8;fontStyle=0;rounded=0;fontSize=18;enumerate=0;comic=0;backgroundOutline=0;metaEdit=0;fixDash=0;snapToPoint=0;fontFamily=Tahoma;labelBackgroundColor=none;labelBorderColor=none;textShadow=0;html=1;fontColor=#1940FF;whiteSpace=wrap;" parent="S4O4gGOpB5IZ9sAPrB25-31" vertex="1">
          <mxGeometry x="271" y="833" width="63" height="50" as="geometry" />
        </mxCell>
        <mxCell id="S4O4gGOpB5IZ9sAPrB25-52" value="" style="pointerEvents=1;shadow=0;dashed=0;strokeColor=none;labelPosition=center;verticalLabelPosition=bottom;verticalAlign=top;outlineConnect=0;align=center;shape=mxgraph.office.concepts.folder;fillColor=#2072B8;fontStyle=0;rounded=0;fontSize=18;enumerate=0;comic=0;backgroundOutline=0;metaEdit=0;fixDash=0;snapToPoint=0;fontFamily=Tahoma;labelBackgroundColor=none;labelBorderColor=none;textShadow=0;html=1;fontColor=#1940FF;whiteSpace=wrap;" parent="S4O4gGOpB5IZ9sAPrB25-31" vertex="1">
          <mxGeometry x="271" y="713" width="63" height="50" as="geometry" />
        </mxCell>
        <mxCell id="S4O4gGOpB5IZ9sAPrB25-53" value="" style="pointerEvents=1;shadow=0;dashed=0;strokeColor=none;labelPosition=center;verticalLabelPosition=bottom;verticalAlign=top;outlineConnect=0;align=center;shape=mxgraph.office.concepts.folder;fillColor=#2072B8;fontStyle=0;rounded=0;fontSize=18;enumerate=0;comic=0;backgroundOutline=0;metaEdit=0;fixDash=0;snapToPoint=0;fontFamily=Tahoma;labelBackgroundColor=none;labelBorderColor=none;textShadow=0;html=1;fontColor=#1940FF;whiteSpace=wrap;" parent="S4O4gGOpB5IZ9sAPrB25-31" vertex="1">
          <mxGeometry x="414.5" y="453" width="63" height="50" as="geometry" />
        </mxCell>
        <mxCell id="S4O4gGOpB5IZ9sAPrB25-54" value="" style="pointerEvents=1;shadow=0;dashed=0;strokeColor=none;labelPosition=center;verticalLabelPosition=bottom;verticalAlign=top;outlineConnect=0;align=center;shape=mxgraph.office.concepts.folder;fillColor=#2072B8;fontStyle=0;rounded=0;fontSize=18;enumerate=0;comic=0;backgroundOutline=0;metaEdit=0;fixDash=0;snapToPoint=0;fontFamily=Tahoma;labelBackgroundColor=none;labelBorderColor=none;textShadow=0;html=1;fontColor=#1940FF;whiteSpace=wrap;" parent="S4O4gGOpB5IZ9sAPrB25-31" vertex="1">
          <mxGeometry x="414.5" y="573" width="63" height="50" as="geometry" />
        </mxCell>
        <mxCell id="S4O4gGOpB5IZ9sAPrB25-55" value="Workflow" style="pointerEvents=1;shadow=0;dashed=0;strokeColor=none;labelPosition=center;verticalLabelPosition=bottom;verticalAlign=top;outlineConnect=0;align=center;shape=mxgraph.office.concepts.folder;fillColor=#2072B8;fontStyle=0;rounded=0;fontSize=18;enumerate=0;comic=0;backgroundOutline=0;metaEdit=0;fixDash=0;snapToPoint=0;fontFamily=Tahoma;labelBackgroundColor=none;labelBorderColor=none;textShadow=0;html=1;fontColor=#1940FF;whiteSpace=wrap;" parent="S4O4gGOpB5IZ9sAPrB25-31" vertex="1">
          <mxGeometry x="510" y="63" width="60" height="50" as="geometry" />
        </mxCell>
        <mxCell id="S4O4gGOpB5IZ9sAPrB25-56" value="" style="pointerEvents=1;shadow=0;dashed=0;strokeColor=none;labelPosition=center;verticalLabelPosition=bottom;verticalAlign=top;outlineConnect=0;align=center;shape=mxgraph.office.concepts.folder;fillColor=#2072B8;fontStyle=0;rounded=0;fontSize=18;enumerate=0;comic=0;backgroundOutline=0;metaEdit=0;fixDash=0;snapToPoint=0;fontFamily=Tahoma;labelBackgroundColor=none;labelBorderColor=none;textShadow=0;html=1;fontColor=#1940FF;whiteSpace=wrap;" parent="S4O4gGOpB5IZ9sAPrB25-31" vertex="1">
          <mxGeometry x="414.5" y="713" width="60" height="50" as="geometry" />
        </mxCell>
        <mxCell id="S4O4gGOpB5IZ9sAPrB25-59" value="Converter.4dd" style="shadow=0;dashed=0;strokeColor=none;fillColor=#4495D1;labelPosition=center;verticalLabelPosition=bottom;verticalAlign=top;align=center;outlineConnect=0;shape=mxgraph.veeam.2d.file;fontStyle=0;rounded=0;fontSize=18;enumerate=0;comic=0;backgroundOutline=0;metaEdit=0;fixDash=0;snapToPoint=0;fontFamily=Tahoma;labelBackgroundColor=none;labelBorderColor=none;textShadow=0;html=1;fontColor=#1940FF;whiteSpace=wrap;" parent="S4O4gGOpB5IZ9sAPrB25-31" vertex="1">
          <mxGeometry x="424.5" y="833" width="40" height="50" as="geometry" />
        </mxCell>
        <mxCell id="S4O4gGOpB5IZ9sAPrB25-60" value="&lt;blockquote style=&quot;margin: 0 0 0 40px; border: none; padding: 0px;&quot;&gt;&lt;blockquote style=&quot;margin: 0 0 0 40px; border: none; padding: 0px;&quot;&gt;&lt;blockquote style=&quot;margin: 0 0 0 40px; border: none; padding: 0px;&quot;&gt;&lt;div style=&quot;&quot;&gt;&lt;br&gt;&lt;/div&gt;&lt;/blockquote&gt;&lt;/blockquote&gt;&lt;/blockquote&gt;" style="sketch=0;aspect=fixed;pointerEvents=1;shadow=0;dashed=0;strokeColor=none;labelPosition=left;verticalLabelPosition=bottom;verticalAlign=top;align=center;fillColor=#2072B8;shape=mxgraph.mscae.enterprise.database_server;spacingLeft=10;spacingRight=-48;fontSize=18;enumerate=0;comic=0;backgroundOutline=0;metaEdit=0;fixDash=0;snapToPoint=0;fontFamily=Tahoma;labelBackgroundColor=none;labelBorderColor=none;textShadow=1;html=1;fontColor=#ffffff;whiteSpace=wrap;" parent="S4O4gGOpB5IZ9sAPrB25-31" vertex="1">
          <mxGeometry x="685" width="115.64" height="152.16" as="geometry" />
        </mxCell>
        <mxCell id="S4O4gGOpB5IZ9sAPrB25-80" value="&lt;font color=&quot;#2072b8&quot;&gt;&lt;span style=&quot;forced-color-adjust: none; font-size: 18px; font-style: normal; font-variant-ligatures: normal; font-variant-caps: normal; font-weight: 400; letter-spacing: normal; orphans: 2; text-align: center; text-indent: 0px; text-transform: none; widows: 2; word-spacing: 0px; -webkit-text-stroke-width: 0px; white-space: normal; background-color: initial; text-decoration-thickness: initial; text-decoration-style: initial; text-decoration-color: initial;&quot;&gt;&lt;b style=&quot;forced-color-adjust: none; line-height: 18px;&quot;&gt;&amp;nbsp; &amp;nbsp;&lt;/b&gt;&lt;/span&gt;&lt;b style=&quot;forced-color-adjust: none; font-size: 18px; font-style: normal; font-variant-ligatures: normal; font-variant-caps: normal; letter-spacing: normal; orphans: 2; text-align: center; text-indent: 0px; text-transform: none; widows: 2; word-spacing: 0px; -webkit-text-stroke-width: 0px; white-space: normal; background-color: initial; text-decoration-thickness: initial; text-decoration-style: initial; text-decoration-color: initial; line-height: 18px;&quot;&gt;Fileserver&lt;/b&gt;&lt;/font&gt;" style="text;html=1;fillColor=none;strokeColor=none;fontFamily=Tahoma;textShadow=1;whiteSpace=wrap;" parent="S4O4gGOpB5IZ9sAPrB25-31" vertex="1">
          <mxGeometry x="685" y="152.15999999999985" width="140" height="50" as="geometry" />
        </mxCell>
        <mxCell id="S4O4gGOpB5IZ9sAPrB25-34" value="" style="endArrow=none;rounded=0;fontSize=18;enumerate=0;comic=0;backgroundOutline=0;metaEdit=0;fixDash=0;snapToPoint=0;strokeWidth=2;fontFamily=Tahoma;labelBackgroundColor=none;labelBorderColor=none;textShadow=0;html=1;fontColor=#1940FF;fontStyle=0;curved=0;" parent="S4O4gGOpB5IZ9sAPrB25-31" edge="1">
          <mxGeometry width="50" height="50" relative="1" as="geometry">
            <mxPoint x="170" y="365" as="sourcePoint" />
            <mxPoint x="170" y="105" as="targetPoint" />
          </mxGeometry>
        </mxCell>
        <mxCell id="S4O4gGOpB5IZ9sAPrB25-120" value="&lt;span style=&quot;color: rgb(25, 64, 255); font-size: 18px; text-wrap-mode: wrap;&quot;&gt;2019001&lt;/span&gt;" style="edgeLabel;html=1;align=center;verticalAlign=middle;resizable=0;points=[];labelBackgroundColor=default;fontFamily=Tahoma;fontStyle=0;textShadow=0;labelBorderColor=none;" parent="S4O4gGOpB5IZ9sAPrB25-34" vertex="1" connectable="0">
          <mxGeometry x="0.6331" relative="1" as="geometry">
            <mxPoint y="-21" as="offset" />
          </mxGeometry>
        </mxCell>
        <mxCell id="S4O4gGOpB5IZ9sAPrB25-121" value="&lt;span style=&quot;color: rgb(25, 64, 255); font-size: 18px; text-wrap-mode: wrap;&quot;&gt;2019002&lt;/span&gt;" style="edgeLabel;html=1;align=center;verticalAlign=middle;resizable=0;points=[];labelBackgroundColor=light-dark(#ffffff, #334a6c);fontFamily=Tahoma;fontStyle=0;textShadow=0;" parent="S4O4gGOpB5IZ9sAPrB25-34" vertex="1" connectable="0">
          <mxGeometry x="-0.4104" y="-2" relative="1" as="geometry">
            <mxPoint x="-2" y="-26" as="offset" />
          </mxGeometry>
        </mxCell>
        <mxCell id="S4O4gGOpB5IZ9sAPrB25-45" value="" style="pointerEvents=1;shadow=0;dashed=0;strokeColor=none;labelPosition=center;verticalLabelPosition=bottom;verticalAlign=top;outlineConnect=0;align=center;shape=mxgraph.office.concepts.folder;fillColor=#2072B8;fontStyle=0;rounded=0;fontSize=18;enumerate=0;comic=0;backgroundOutline=0;metaEdit=0;fixDash=0;snapToPoint=0;fontFamily=Tahoma;labelBackgroundColor=none;labelBorderColor=none;textShadow=0;html=1;fontColor=#1940FF;whiteSpace=wrap;" parent="S4O4gGOpB5IZ9sAPrB25-31" vertex="1">
          <mxGeometry x="271" y="193" width="63" height="50" as="geometry" />
        </mxCell>
        <mxCell id="S4O4gGOpB5IZ9sAPrB25-46" value="" style="pointerEvents=1;shadow=0;dashed=0;strokeColor=none;labelPosition=center;verticalLabelPosition=bottom;verticalAlign=top;outlineConnect=0;align=center;shape=mxgraph.office.concepts.folder;fillColor=#2072B8;fontStyle=0;rounded=0;fontSize=18;enumerate=0;comic=0;backgroundOutline=0;metaEdit=0;fixDash=0;snapToPoint=0;fontFamily=Tahoma;labelBackgroundColor=none;labelBorderColor=none;textShadow=0;html=1;fontColor=#1940FF;whiteSpace=wrap;" parent="S4O4gGOpB5IZ9sAPrB25-31" vertex="1">
          <mxGeometry x="136" y="63" width="63" height="50" as="geometry" />
        </mxCell>
        <mxCell id="S4O4gGOpB5IZ9sAPrB25-47" value="" style="pointerEvents=1;shadow=0;dashed=0;strokeColor=none;labelPosition=center;verticalLabelPosition=bottom;verticalAlign=top;outlineConnect=0;align=center;shape=mxgraph.office.concepts.folder;fillColor=#2072B8;fontStyle=0;rounded=0;fontSize=18;enumerate=0;comic=0;backgroundOutline=0;metaEdit=0;fixDash=0;snapToPoint=0;fontFamily=Tahoma;labelBackgroundColor=none;labelBorderColor=none;textShadow=0;html=1;fontColor=#1940FF;whiteSpace=wrap;" parent="S4O4gGOpB5IZ9sAPrB25-31" vertex="1">
          <mxGeometry x="271" y="63" width="63" height="50" as="geometry" />
        </mxCell>
        <mxCell id="S4O4gGOpB5IZ9sAPrB25-48" value="" style="pointerEvents=1;shadow=0;dashed=0;strokeColor=none;labelPosition=center;verticalLabelPosition=bottom;verticalAlign=top;outlineConnect=0;align=center;shape=mxgraph.office.concepts.folder;fillColor=#2072B8;fontStyle=0;rounded=0;fontSize=18;enumerate=0;comic=0;backgroundOutline=0;metaEdit=0;fixDash=0;snapToPoint=0;fontFamily=Tahoma;labelBackgroundColor=none;labelBorderColor=none;textShadow=0;html=1;fontColor=#1940FF;whiteSpace=wrap;" parent="S4O4gGOpB5IZ9sAPrB25-31" vertex="1">
          <mxGeometry x="136" y="193" width="63" height="50" as="geometry" />
        </mxCell>
        <mxCell id="S4O4gGOpB5IZ9sAPrB25-49" value="" style="pointerEvents=1;shadow=0;dashed=0;strokeColor=none;labelPosition=center;verticalLabelPosition=bottom;verticalAlign=top;outlineConnect=0;align=center;shape=mxgraph.office.concepts.folder;fillColor=#2072B8;fontStyle=0;rounded=0;fontSize=18;enumerate=0;comic=0;backgroundOutline=0;metaEdit=0;fixDash=0;snapToPoint=0;fontFamily=Tahoma;labelBackgroundColor=none;labelBorderColor=none;textShadow=0;html=1;fontColor=#1940FF;whiteSpace=wrap;" parent="S4O4gGOpB5IZ9sAPrB25-31" vertex="1">
          <mxGeometry x="271" y="453" width="63" height="50" as="geometry" />
        </mxCell>
        <mxCell id="S4O4gGOpB5IZ9sAPrB25-134" value="" style="edgeStyle=orthogonalEdgeStyle;rounded=0;orthogonalLoop=1;jettySize=auto;html=1;fontFamily=Tahoma;fontStyle=0;textShadow=0;" parent="S4O4gGOpB5IZ9sAPrB25-31" source="S4O4gGOpB5IZ9sAPrB25-57" target="S4O4gGOpB5IZ9sAPrB25-45" edge="1">
          <mxGeometry relative="1" as="geometry" />
        </mxCell>
        <mxCell id="S4O4gGOpB5IZ9sAPrB25-57" value="" style="pointerEvents=1;shadow=0;dashed=0;strokeColor=none;labelPosition=center;verticalLabelPosition=bottom;verticalAlign=top;outlineConnect=0;align=center;shape=mxgraph.office.concepts.folder;fillColor=#2072B8;fontStyle=0;rounded=0;fontSize=18;enumerate=0;comic=0;backgroundOutline=0;metaEdit=0;fixDash=0;snapToPoint=0;fontFamily=Tahoma;labelBackgroundColor=none;labelBorderColor=none;textShadow=0;html=1;fontColor=#1940FF;whiteSpace=wrap;" parent="S4O4gGOpB5IZ9sAPrB25-31" vertex="1">
          <mxGeometry x="271" y="323" width="63" height="50" as="geometry" />
        </mxCell>
        <mxCell id="S4O4gGOpB5IZ9sAPrB25-58" value="Structure.XML" style="shadow=0;dashed=0;strokeColor=none;fillColor=#4495D1;labelPosition=center;verticalLabelPosition=bottom;verticalAlign=top;align=center;outlineConnect=0;shape=mxgraph.veeam.2d.file;fontStyle=0;rounded=0;fontSize=18;enumerate=0;comic=0;backgroundOutline=0;metaEdit=0;fixDash=0;snapToPoint=0;fontFamily=Tahoma;labelBackgroundColor=none;labelBorderColor=none;textShadow=0;html=1;fontColor=#1940FF;whiteSpace=wrap;" parent="S4O4gGOpB5IZ9sAPrB25-31" vertex="1">
          <mxGeometry x="152" y="323" width="39" height="49" as="geometry" />
        </mxCell>
        <mxCell id="I7lcLRuuZxi_ZN2vdszQ-2" value="&lt;span style=&quot;font-size: 18px; text-wrap-mode: wrap;&quot;&gt;2019001&lt;/span&gt;" style="edgeLabel;html=1;align=center;verticalAlign=middle;resizable=0;points=[];labelBackgroundColor=none;fontFamily=Tahoma;fontStyle=0;textShadow=0;labelBorderColor=none;textOpacity=40;fontColor=#737373;" parent="S4O4gGOpB5IZ9sAPrB25-31" vertex="1" connectable="0">
          <mxGeometry x="171.5" y="134" as="geometry" />
        </mxCell>
        <mxCell id="I7lcLRuuZxi_ZN2vdszQ-3" value="&lt;span style=&quot;font-size: 18px; text-wrap-mode: wrap;&quot;&gt;2019002&lt;/span&gt;" style="edgeLabel;html=1;align=center;verticalAlign=middle;resizable=0;points=[];labelBackgroundColor=none;fontFamily=Tahoma;fontStyle=0;textShadow=0;textOpacity=40;fontColor=#737373;" parent="S4O4gGOpB5IZ9sAPrB25-31" vertex="1" connectable="0">
          <mxGeometry x="171.5" y="264" as="geometry" />
        </mxCell>
        <mxCell id="S4O4gGOpB5IZ9sAPrB25-65" value="" style="group;fontSize=18;enumerate=0;comic=0;backgroundOutline=0;metaEdit=0;fixDash=0;snapToPoint=0;fontFamily=Tahoma;labelBackgroundColor=none;labelBorderColor=none;textShadow=1;html=1;whiteSpace=wrap;shadow=0;" parent="S4O4gGOpB5IZ9sAPrB25-141" vertex="1" connectable="0">
          <mxGeometry y="197" width="241" height="173" as="geometry" />
        </mxCell>
        <mxCell id="S4O4gGOpB5IZ9sAPrB25-66" value="" style="image;sketch=0;aspect=fixed;points=[];align=center;fontSize=18;image=img/lib/mscae/Managed_Desktop.svg;enumerate=0;comic=0;backgroundOutline=0;metaEdit=0;fixDash=0;snapToPoint=0;fontFamily=Tahoma;labelBackgroundColor=none;labelBorderColor=none;textShadow=1;html=1;whiteSpace=wrap;shadow=1;" parent="S4O4gGOpB5IZ9sAPrB25-65" vertex="1">
          <mxGeometry y="24.56" width="160.34" height="115.44" as="geometry" />
        </mxCell>
        <mxCell id="S4O4gGOpB5IZ9sAPrB25-72" value="&lt;font&gt;Klant met inlog op web module&lt;/font&gt;" style="text;align=center;verticalAlign=middle;resizable=0;points=[];autosize=1;strokeColor=none;fillColor=none;fontStyle=1;fontSize=18;enumerate=0;comic=0;backgroundOutline=0;metaEdit=0;fixDash=0;snapToPoint=0;fontFamily=Tahoma;labelBackgroundColor=none;labelBorderColor=none;textShadow=1;html=1;" parent="S4O4gGOpB5IZ9sAPrB25-65" vertex="1">
          <mxGeometry x="-49" y="133" width="270" height="40" as="geometry" />
        </mxCell>
        <mxCell id="I7lcLRuuZxi_ZN2vdszQ-1" value="" style="image;sketch=0;aspect=fixed;html=1;points=[];align=center;fontSize=12;image=img/lib/mscae/CustomDomain.svg;textShadow=1;whiteSpace=wrap;" parent="S4O4gGOpB5IZ9sAPrB25-65" vertex="1">
          <mxGeometry x="38.29" y="39" width="79.76" height="67" as="geometry" />
        </mxCell>
        <mxCell id="S4O4gGOpB5IZ9sAPrB25-62" value="Rechten: Lees/Schrijf +&lt;br&gt;Uitvoeren door MP Server" style="shadow=0;dashed=0;shape=mxgraph.bootstrap.rrect;rSize=5;strokeColor=default;strokeWidth=1;fillColor=#DAE8FC;align=center;verticalAlign=middle;spacingLeft=0;fontStyle=0;fontSize=16;spacing=5;fontFamily=Tahoma;enumerate=0;comic=0;backgroundOutline=0;metaEdit=0;fixDash=0;snapToPoint=0;labelBackgroundColor=none;labelBorderColor=none;textShadow=1;html=1;whiteSpace=wrap;fontColor=default;" parent="S4O4gGOpB5IZ9sAPrB25-141" vertex="1">
          <mxGeometry x="951" y="850" width="235" height="90" as="geometry" />
        </mxCell>
        <mxCell id="S4O4gGOpB5IZ9sAPrB25-61" value="" style="edgeStyle=orthogonalEdgeStyle;orthogonalLoop=1;jettySize=auto;fillColor=#dae8fc;strokeColor=#000000;startArrow=none;startFill=0;endArrow=block;endFill=1;flowAnimation=0;shadow=1;enumerate=0;comic=0;backgroundOutline=0;metaEdit=0;fixDash=0;snapToPoint=0;fontFamily=Tahoma;labelBackgroundColor=none;labelBorderColor=none;textShadow=1;html=1;fontColor=#1940FF;strokeWidth=3;" parent="S4O4gGOpB5IZ9sAPrB25-141" target="S4O4gGOpB5IZ9sAPrB25-58" edge="1">
          <mxGeometry relative="1" as="geometry">
            <Array as="points">
              <mxPoint x="930" y="902" />
              <mxPoint x="930" y="850" />
              <mxPoint x="510" y="850" />
              <mxPoint x="510" y="788" />
            </Array>
            <mxPoint x="435" y="788" as="targetPoint" />
            <mxPoint x="950" y="902" as="sourcePoint" />
          </mxGeometry>
        </mxCell>
        <mxCell id="S4O4gGOpB5IZ9sAPrB25-63" value="&lt;font&gt;Deze map heeft lees en schrijf rechten nodig voor iedere gebruiker van Multi-Press en de Servers.&lt;/font&gt;&lt;div&gt;&lt;font&gt;Dit geld ook voor de onderliggende mappen en documenten.&lt;/font&gt;&lt;/div&gt;" style="shadow=0;dashed=0;shape=mxgraph.bootstrap.rrect;rSize=5;strokeColor=default;strokeWidth=1;fillColor=#DAE8FC;align=center;verticalAlign=middle;spacingLeft=0;fontStyle=0;fontSize=16;spacing=5;fontFamily=Tahoma;enumerate=0;comic=0;backgroundOutline=0;metaEdit=0;fixDash=0;snapToPoint=0;labelBackgroundColor=none;labelBorderColor=none;textShadow=1;html=1;whiteSpace=wrap;fontColor=default;" parent="S4O4gGOpB5IZ9sAPrB25-141" vertex="1">
          <mxGeometry x="950" y="690" width="236" height="150" as="geometry" />
        </mxCell>
        <mxCell id="S4O4gGOpB5IZ9sAPrB25-64" value="" style="edgeStyle=orthogonalEdgeStyle;orthogonalLoop=1;jettySize=auto;fillColor=#dae8fc;strokeColor=#000000;startArrow=none;startFill=0;endArrow=block;endFill=1;flowAnimation=0;shadow=1;enumerate=0;comic=0;backgroundOutline=0;metaEdit=0;fixDash=0;snapToPoint=0;fontFamily=Tahoma;labelBackgroundColor=none;labelBorderColor=none;textShadow=1;html=1;exitX=0.008;exitY=0.478;exitDx=0;exitDy=0;exitPerimeter=0;strokeWidth=3;" parent="S4O4gGOpB5IZ9sAPrB25-141" edge="1">
          <mxGeometry relative="1" as="geometry">
            <mxPoint x="950.8879999999999" y="761.7000000000007" as="sourcePoint" />
            <mxPoint x="831" y="540" as="targetPoint" />
            <Array as="points">
              <mxPoint x="889" y="762" />
              <mxPoint x="889" y="540" />
            </Array>
          </mxGeometry>
        </mxCell>
        <mxCell id="I7lcLRuuZxi_ZN2vdszQ-9" value="" style="group" parent="S4O4gGOpB5IZ9sAPrB25-141" vertex="1" connectable="0">
          <mxGeometry x="260" y="198" width="136.00000000000023" height="161" as="geometry" />
        </mxCell>
        <mxCell id="S4O4gGOpB5IZ9sAPrB25-68" value="&lt;p&gt;&lt;br&gt;&lt;/p&gt;" style="image;sketch=0;aspect=fixed;points=[];align=center;fontSize=18;image=img/lib/mscae/Web_App_Firewall.svg;fontStyle=1;horizontal=1;verticalAlign=top;textDirection=ltr;enumerate=0;comic=0;backgroundOutline=0;metaEdit=0;fixDash=0;snapToPoint=0;fontFamily=Tahoma;labelBackgroundColor=none;labelBorderColor=none;textShadow=1;html=1;whiteSpace=wrap;container=0;" parent="I7lcLRuuZxi_ZN2vdszQ-9" vertex="1">
          <mxGeometry width="136" height="136" as="geometry" />
        </mxCell>
        <mxCell id="S4O4gGOpB5IZ9sAPrB25-107" value="&lt;span style=&quot;font-size: 18px; font-style: normal; font-variant-ligatures: normal; font-variant-caps: normal; font-weight: 700; letter-spacing: normal; orphans: 2; text-align: center; text-indent: 0px; text-transform: none; widows: 2; word-spacing: 0px; -webkit-text-stroke-width: 0px; white-space: normal; text-decoration-thickness: initial; text-decoration-style: initial; text-decoration-color: initial; float: none; background-color: rgb(51, 0, 0); display: inline !important;&quot;&gt;&amp;nbsp; Firewall&amp;nbsp;&amp;nbsp;&lt;/span&gt;" style="text;html=1;labelBackgroundColor=none;fontColor=#FF7700;fontFamily=Tahoma;textShadow=1;whiteSpace=wrap;" parent="I7lcLRuuZxi_ZN2vdszQ-9" vertex="1">
          <mxGeometry x="9" y="111" width="110" height="50" as="geometry" />
        </mxCell>
        <mxCell id="I7lcLRuuZxi_ZN2vdszQ-6" value="" style="image;aspect=fixed;points=[];align=center;fontSize=18;image=img/lib/mscae/App_Services.svg;enumerate=0;comic=0;backgroundOutline=0;metaEdit=0;fixDash=0;snapToPoint=0;fontFamily=Tahoma;labelBackgroundColor=none;labelBorderColor=none;textShadow=1;html=1;whiteSpace=wrap;imageBackground=none;shadow=1;imageBorder=none;perimeter=ellipsePerimeter;" parent="I7lcLRuuZxi_ZN2vdszQ-9" vertex="1">
          <mxGeometry x="41.720000000000255" width="94.28" height="94.28" as="geometry" />
        </mxCell>
      </root>
    </mxGraphModel>
  </diagram>
</mxfile>
